<svg width="123" height="36" viewBox="0 0 123 36" fill="none" xmlns="http://www.w3.org/2000/svg">
<ellipse cx="22" cy="18" rx="22" ry="18" fill="#0FC4A5"/>
<path d="M18.08 16.48C17.96 15.7333 17.7467 15.1133 17.44 14.62C17.1333 14.1133 16.74 13.7333 16.26 13.48C15.7933 13.2267 15.2467 13.1067 14.62 13.12C14.0467 13.12 13.54 13.28 13.1 13.6C12.6733 13.92 12.46 14.3333 12.46 14.84C12.46 15.2533 12.5733 15.6133 12.8 15.92C13.04 16.2267 13.4 16.5133 13.88 16.78C14.36 17.0467 14.9667 17.3333 15.7 17.64C16.2067 17.84 16.7267 18.0733 17.26 18.34C17.7933 18.6067 18.2867 18.9267 18.74 19.3C19.1933 19.66 19.56 20.0867 19.84 20.58C20.12 21.06 20.26 21.6267 20.26 22.28C20.26 23.0667 20.0467 23.7667 19.62 24.38C19.1933 24.9933 18.5933 25.4733 17.82 25.82C17.06 26.1533 16.1667 26.32 15.14 26.32C14.6067 26.32 14.0267 26.2333 13.4 26.06C12.7867 25.9 12.2067 25.66 11.66 25.34L11.72 26.18H10.18V21.5H11.5C11.6867 22.62 12.1133 23.4667 12.78 24.04C13.46 24.6 14.2667 24.88 15.2 24.88C15.68 24.88 16.1 24.7933 16.46 24.62C16.82 24.4467 17.1 24.22 17.3 23.94C17.5 23.6467 17.6 23.3333 17.6 23C17.6 22.5333 17.4333 22.1467 17.1 21.84C16.78 21.5333 16.3733 21.2733 15.88 21.06C15.4 20.8467 14.9067 20.64 14.4 20.44C13.76 20.1733 13.16 19.8933 12.6 19.6C12.0533 19.2933 11.5733 18.9467 11.16 18.56C10.7467 18.1733 10.4267 17.7333 10.2 17.24C9.97333 16.7333 9.86 16.1533 9.86 15.5C9.86 15.0867 9.94 14.66 10.1 14.22C10.26 13.7667 10.52 13.3533 10.88 12.98C11.24 12.5933 11.72 12.28 12.32 12.04C12.92 11.8 13.66 11.68 14.54 11.68C15.0733 11.68 15.6533 11.76 16.28 11.92C16.92 12.08 17.4667 12.32 17.92 12.64L17.84 11.82H19.4V16.48H18.08ZM21.9531 26V24.68C22.2598 24.6667 22.5131 24.6267 22.7131 24.56C22.9265 24.4933 23.0865 24.34 23.1931 24.1C23.3131 23.86 23.3731 23.4733 23.3731 22.94V15.28C23.3731 14.92 23.3798 14.5733 23.3931 14.24C23.4198 13.9067 23.4398 13.6533 23.4531 13.48C23.2398 13.4933 22.9731 13.5067 22.6531 13.52C22.3331 13.52 22.0998 13.5267 21.9531 13.54V12C22.8731 11.9867 23.7931 11.98 24.7131 11.98C25.6465 11.98 26.5731 11.9733 27.4931 11.96C29.0931 11.9467 30.3598 12.2467 31.2931 12.86C32.2398 13.46 32.6798 14.3733 32.6131 15.6C32.5865 15.9867 32.4665 16.3667 32.2531 16.74C32.0398 17.1 31.7198 17.4267 31.2931 17.72C30.8798 18.0133 30.3598 18.2467 29.7331 18.42V18.44C31.0665 18.6533 32.0465 19.1 32.6731 19.78C33.2998 20.4467 33.6131 21.1933 33.6131 22.02C33.6131 22.8867 33.3998 23.62 32.9731 24.22C32.5598 24.8067 31.9865 25.2533 31.2531 25.56C30.5198 25.8533 29.6865 26 28.7531 26H21.9531ZM26.1931 24.58C26.4331 24.58 26.6598 24.58 26.8731 24.58C27.0865 24.58 27.2998 24.58 27.5131 24.58C27.7265 24.5667 27.9331 24.56 28.1331 24.56C28.9465 24.52 29.5398 24.26 29.9131 23.78C30.2865 23.3 30.4731 22.6933 30.4731 21.96C30.4731 21.3467 30.3465 20.8667 30.0931 20.52C29.8398 20.16 29.5131 19.9067 29.1131 19.76C28.7265 19.6133 28.3198 19.54 27.8931 19.54C27.5598 19.54 27.2731 19.54 27.0331 19.54C26.7931 19.54 26.5398 19.5467 26.2731 19.56V22.82C26.2731 23.18 26.2665 23.52 26.2531 23.84C26.2398 24.16 26.2198 24.4067 26.1931 24.58ZM26.2731 18.14L27.3131 18.12C27.8731 18.1067 28.3131 17.98 28.6331 17.74C28.9665 17.5 29.1998 17.18 29.3331 16.78C29.4798 16.3667 29.5531 15.92 29.5531 15.44C29.5531 14.9067 29.4465 14.4933 29.2331 14.2C29.0198 13.8933 28.7531 13.6733 28.4331 13.54C28.1131 13.4067 27.7798 13.3467 27.4331 13.36C27.2198 13.36 27.0265 13.3933 26.8531 13.46C26.6798 13.5267 26.5398 13.68 26.4331 13.92C26.3265 14.1467 26.2731 14.52 26.2731 15.04V18.14Z" fill="white"/>
<path d="M59.08 16.48C58.96 15.7333 58.7467 15.1133 58.44 14.62C58.1333 14.1133 57.74 13.7333 57.26 13.48C56.7933 13.2267 56.2467 13.1067 55.62 13.12C55.0467 13.12 54.54 13.28 54.1 13.6C53.6733 13.92 53.46 14.3333 53.46 14.84C53.46 15.2533 53.5733 15.6133 53.8 15.92C54.04 16.2267 54.4 16.5133 54.88 16.78C55.36 17.0467 55.9667 17.3333 56.7 17.64C57.2067 17.84 57.7267 18.0733 58.26 18.34C58.7933 18.6067 59.2867 18.9267 59.74 19.3C60.1933 19.66 60.56 20.0867 60.84 20.58C61.12 21.06 61.26 21.6267 61.26 22.28C61.26 23.0667 61.0467 23.7667 60.62 24.38C60.1933 24.9933 59.5933 25.4733 58.82 25.82C58.06 26.1533 57.1667 26.32 56.14 26.32C55.6067 26.32 55.0267 26.2333 54.4 26.06C53.7867 25.9 53.2067 25.66 52.66 25.34L52.72 26.18H51.18V21.5H52.5C52.6867 22.62 53.1133 23.4667 53.78 24.04C54.46 24.6 55.2667 24.88 56.2 24.88C56.68 24.88 57.1 24.7933 57.46 24.62C57.82 24.4467 58.1 24.22 58.3 23.94C58.5 23.6467 58.6 23.3333 58.6 23C58.6 22.5333 58.4333 22.1467 58.1 21.84C57.78 21.5333 57.3733 21.2733 56.88 21.06C56.4 20.8467 55.9067 20.64 55.4 20.44C54.76 20.1733 54.16 19.8933 53.6 19.6C53.0533 19.2933 52.5733 18.9467 52.16 18.56C51.7467 18.1733 51.4267 17.7333 51.2 17.24C50.9733 16.7333 50.86 16.1533 50.86 15.5C50.86 15.0867 50.94 14.66 51.1 14.22C51.26 13.7667 51.52 13.3533 51.88 12.98C52.24 12.5933 52.72 12.28 53.32 12.04C53.92 11.8 54.66 11.68 55.54 11.68C56.0733 11.68 56.6533 11.76 57.28 11.92C57.92 12.08 58.4667 12.32 58.92 12.64L58.84 11.82H60.4V16.48H59.08ZM67.6731 26.32C66.7131 26.32 65.8465 26.1133 65.0731 25.7C64.2998 25.2867 63.6865 24.7 63.2331 23.94C62.7931 23.1667 62.5731 22.26 62.5731 21.22C62.5731 20.1133 62.7998 19.1467 63.2531 18.32C63.7198 17.48 64.3331 16.8333 65.0931 16.38C65.8665 15.9133 66.7065 15.68 67.6131 15.68C68.5731 15.68 69.4331 15.8867 70.1931 16.3C70.9531 16.7133 71.5531 17.3067 71.9931 18.08C72.4331 18.84 72.6531 19.7533 72.6531 20.82C72.6531 21.94 72.4398 22.9133 72.0131 23.74C71.5865 24.5667 70.9998 25.2067 70.2531 25.66C69.5065 26.1 68.6465 26.32 67.6731 26.32ZM67.7531 24.9C68.2865 24.8867 68.6865 24.7 68.9531 24.34C69.2331 23.98 69.4265 23.5267 69.5331 22.98C69.6398 22.4333 69.6931 21.88 69.6931 21.32C69.6931 20.8267 69.6531 20.3267 69.5731 19.82C69.5065 19.3133 69.3931 18.8533 69.2331 18.44C69.0731 18.0267 68.8531 17.6933 68.5731 17.44C68.3065 17.1867 67.9731 17.0667 67.5731 17.08C67.0531 17.0933 66.6398 17.28 66.3331 17.64C66.0398 18 65.8265 18.4533 65.6931 19C65.5731 19.5333 65.5131 20.0933 65.5131 20.68C65.5131 21.36 65.5865 22.0267 65.7331 22.68C65.8798 23.3333 66.1131 23.8733 66.4331 24.3C66.7665 24.7133 67.2065 24.9133 67.7531 24.9ZM75.2631 15.42C75.2631 13.8067 75.6165 12.6533 76.3231 11.96C77.0298 11.2533 77.9831 10.9 79.1831 10.9C79.8098 10.9 80.3098 10.9933 80.6831 11.18C81.0565 11.3533 81.3231 11.5733 81.4831 11.84C81.6431 12.1067 81.7231 12.38 81.7231 12.66C81.7231 13.0067 81.6165 13.3133 81.4031 13.58C81.1898 13.8467 80.8831 13.9867 80.4831 14C80.0965 14.0133 79.7965 13.9133 79.5831 13.7C79.3698 13.4733 79.2631 13.1933 79.2631 12.86C79.2631 12.7933 79.2631 12.7267 79.2631 12.66C79.2765 12.5933 79.2898 12.5267 79.3031 12.46C79.2365 12.3933 79.1565 12.3533 79.0631 12.34C78.9831 12.3133 78.9098 12.3 78.8431 12.3C78.6298 12.3 78.4631 12.3667 78.3431 12.5C78.2231 12.62 78.1431 12.7733 78.1031 12.96C78.0631 13.1467 78.0431 13.34 78.0431 13.54V16H80.2831V17.54L78.0631 17.6L78.0831 22.74C78.0831 22.9267 78.0765 23.2 78.0631 23.56C78.0498 23.9067 78.0298 24.2333 78.0031 24.54C78.2298 24.5133 78.4831 24.5 78.7631 24.5C79.0565 24.4867 79.2698 24.48 79.4031 24.48V26H74.0631V24.7C74.4365 24.7 74.7031 24.6267 74.8631 24.48C75.0365 24.3333 75.1431 24.1267 75.1831 23.86C75.2365 23.58 75.2631 23.2667 75.2631 22.92V17.64L73.8031 17.66V16H75.2631V15.42ZM85.3659 26.32C84.9659 26.32 84.5793 26.2733 84.2059 26.18C83.8459 26.0867 83.5126 25.9133 83.2059 25.66C82.9126 25.3933 82.6793 25.0067 82.5059 24.5C82.3326 23.9933 82.2459 23.32 82.2459 22.48L82.2859 17.66H80.9259V16C81.3393 15.9867 81.7393 15.8467 82.1259 15.58C82.5126 15.3133 82.8393 14.9667 83.1059 14.54C83.3859 14.1133 83.5726 13.6667 83.6659 13.2H85.1459L85.1259 16H87.6659V17.54L85.1259 17.6L85.1059 22.52C85.1059 22.8267 85.1326 23.1333 85.1859 23.44C85.2526 23.7333 85.3726 23.98 85.5459 24.18C85.7193 24.3667 85.9726 24.46 86.3059 24.46C86.4926 24.46 86.7459 24.3933 87.0659 24.26C87.3993 24.1267 87.7526 23.7933 88.1259 23.26L89.0859 24.16C88.7259 24.6933 88.3526 25.1067 87.9659 25.4C87.5793 25.6933 87.2059 25.9067 86.8459 26.04C86.4993 26.1733 86.1926 26.2533 85.9259 26.28C85.6593 26.3067 85.4726 26.32 85.3659 26.32ZM95.1016 26V24.68C95.4082 24.6667 95.6616 24.6267 95.8616 24.56C96.0749 24.4933 96.2349 24.34 96.3416 24.1C96.4616 23.86 96.5216 23.4733 96.5216 22.94V15.28C96.5216 14.92 96.5282 14.5733 96.5416 14.24C96.5682 13.9067 96.5882 13.6533 96.6016 13.48C96.3882 13.4933 96.1216 13.5067 95.8016 13.52C95.4816 13.52 95.2482 13.5267 95.1016 13.54V12C96.0216 11.9867 96.9416 11.98 97.8616 11.98C98.7949 11.98 99.7216 11.9733 100.642 11.96C102.242 11.9467 103.508 12.2467 104.442 12.86C105.388 13.46 105.828 14.3733 105.762 15.6C105.735 15.9867 105.615 16.3667 105.402 16.74C105.188 17.1 104.868 17.4267 104.442 17.72C104.028 18.0133 103.508 18.2467 102.882 18.42V18.44C104.215 18.6533 105.195 19.1 105.822 19.78C106.448 20.4467 106.762 21.1933 106.762 22.02C106.762 22.8867 106.548 23.62 106.122 24.22C105.708 24.8067 105.135 25.2533 104.402 25.56C103.668 25.8533 102.835 26 101.902 26H95.1016ZM99.3416 24.58C99.5816 24.58 99.8082 24.58 100.022 24.58C100.235 24.58 100.448 24.58 100.662 24.58C100.875 24.5667 101.082 24.56 101.282 24.56C102.095 24.52 102.688 24.26 103.062 23.78C103.435 23.3 103.622 22.6933 103.622 21.96C103.622 21.3467 103.495 20.8667 103.242 20.52C102.988 20.16 102.662 19.9067 102.262 19.76C101.875 19.6133 101.468 19.54 101.042 19.54C100.708 19.54 100.422 19.54 100.182 19.54C99.9416 19.54 99.6882 19.5467 99.4216 19.56V22.82C99.4216 23.18 99.4149 23.52 99.4016 23.84C99.3882 24.16 99.3682 24.4067 99.3416 24.58ZM99.4216 18.14L100.462 18.12C101.022 18.1067 101.462 17.98 101.782 17.74C102.115 17.5 102.348 17.18 102.482 16.78C102.628 16.3667 102.702 15.92 102.702 15.44C102.702 14.9067 102.595 14.4933 102.382 14.2C102.168 13.8933 101.902 13.6733 101.582 13.54C101.262 13.4067 100.928 13.3467 100.582 13.36C100.368 13.36 100.175 13.3933 100.002 13.46C99.8282 13.5267 99.6882 13.68 99.5816 13.92C99.4749 14.1467 99.4216 14.52 99.4216 15.04V18.14ZM107.91 24.7C108.283 24.7 108.55 24.6267 108.71 24.48C108.87 24.3333 108.97 24.1267 109.01 23.86C109.063 23.58 109.09 23.2667 109.09 22.92V19.6C109.09 19.36 109.097 19.0867 109.11 18.78C109.123 18.46 109.143 18.1533 109.17 17.86C108.957 17.8733 108.703 17.8867 108.41 17.9C108.13 17.9 107.917 17.9067 107.77 17.92V16.4C108.383 16.4 108.903 16.3667 109.33 16.3C109.757 16.2333 110.09 16.1533 110.33 16.06C110.583 15.9667 110.757 15.88 110.85 15.8H111.93V22.78C111.93 22.9667 111.923 23.2333 111.91 23.58C111.897 23.9133 111.877 24.2333 111.85 24.54C112.063 24.5133 112.297 24.5 112.55 24.5C112.817 24.4867 113.017 24.48 113.15 24.48V26H107.91V24.7ZM110.41 14.22C109.957 14.22 109.583 14.06 109.29 13.74C108.997 13.42 108.85 13.0333 108.85 12.58C108.85 12.1267 109.003 11.74 109.31 11.42C109.617 11.1 109.977 10.94 110.39 10.94C110.817 10.94 111.17 11.1 111.45 11.42C111.743 11.74 111.89 12.1267 111.89 12.58C111.89 13.0333 111.757 13.42 111.49 13.74C111.223 14.06 110.863 14.22 110.41 14.22ZM118.335 26.32C117.935 26.32 117.548 26.2733 117.175 26.18C116.815 26.0867 116.481 25.9133 116.175 25.66C115.881 25.3933 115.648 25.0067 115.475 24.5C115.301 23.9933 115.215 23.32 115.215 22.48L115.255 17.66H113.895V16C114.308 15.9867 114.708 15.8467 115.095 15.58C115.481 15.3133 115.808 14.9667 116.075 14.54C116.355 14.1133 116.541 13.6667 116.635 13.2H118.115L118.095 16H120.635V17.54L118.095 17.6L118.075 22.52C118.075 22.8267 118.101 23.1333 118.155 23.44C118.221 23.7333 118.341 23.98 118.515 24.18C118.688 24.3667 118.941 24.46 119.275 24.46C119.461 24.46 119.715 24.3933 120.035 24.26C120.368 24.1267 120.721 23.7933 121.095 23.26L122.055 24.16C121.695 24.6933 121.321 25.1067 120.935 25.4C120.548 25.6933 120.175 25.9067 119.815 26.04C119.468 26.1733 119.161 26.2533 118.895 26.28C118.628 26.3067 118.441 26.32 118.335 26.32Z" fill="#0FC4A5"/>
</svg>
